<svg xmlns="http://www.w3.org/2000/svg" viewBox="0 0 1024 1024" role="img" aria-labelledby="title desc">
  <title id="title">Aquila Solutions Group eagle mark</title>
  <desc id="desc">A compact green and gold eagle mark for Aquila Solutions Group.</desc>
  <path fill="#1B4D3E" d="M512 118c-48 86-112 150-194 194-70 38-151 59-242 64 65 54 138 91 219 111-87 20-161 59-222 117 100 8 195-8 285-47-45 70-72 147-81 230 89-44 166-103 231-177 62 75 137 135 224 181-7-86-32-165-76-237 91 42 188 61 291 55-59-61-132-102-218-125 82-17 156-51 223-103-90-8-171-32-240-72-82-47-148-111-200-191Z"/>
  <path fill="#C8A45D" d="M511 243c-37 45-83 82-138 111 46 3 90-3 132-17-18 30-28 63-30 99 31-18 57-41 78-70 20 29 46 52 77 70-3-36-13-69-31-99 42 14 86 20 132 17-55-29-101-66-138-111-23-28-41-61-54-98-9 37-19 70-28 98Z"/>
  <path fill="#FFFFFF" d="M516 401c-42 0-76 34-76 76 0 53 76 147 76 147s76-94 76-147c0-42-34-76-76-76Zm0 111a35 35 0 1 1 0-70 35 35 0 0 1 0 70Z"/>
  <path fill="#C8A45D" d="M585 390c62-15 122-39 180-72-32 52-78 95-137 130-12-24-26-43-43-58ZM439 390c-61-15-121-39-179-72 32 52 78 95 137 130 11-24 26-43 42-58Z"/>
</svg>
